%TF.GenerationSoftware,KiCad,Pcbnew,(6.0.1)*%
%TF.CreationDate,2022-03-11T00:24:32+11:00*%
%TF.ProjectId,BLE_beacon,424c455f-6265-4616-936f-6e2e6b696361,rev?*%
%TF.SameCoordinates,PX7e67600PY5e0b320*%
%TF.FileFunction,Copper,L1,Top*%
%TF.FilePolarity,Positive*%
%FSLAX46Y46*%
G04 Gerber Fmt 4.6, Leading zero omitted, Abs format (unit mm)*
G04 Created by KiCad (PCBNEW (6.0.1)) date 2022-03-11 00:24:32*
%MOMM*%
%LPD*%
G01*
G04 APERTURE LIST*
G04 Aperture macros list*
%AMRoundRect*
0 Rectangle with rounded corners*
0 $1 Rounding radius*
0 $2 $3 $4 $5 $6 $7 $8 $9 X,Y pos of 4 corners*
0 Add a 4 corners polygon primitive as box body*
4,1,4,$2,$3,$4,$5,$6,$7,$8,$9,$2,$3,0*
0 Add four circle primitives for the rounded corners*
1,1,$1+$1,$2,$3*
1,1,$1+$1,$4,$5*
1,1,$1+$1,$6,$7*
1,1,$1+$1,$8,$9*
0 Add four rect primitives between the rounded corners*
20,1,$1+$1,$2,$3,$4,$5,0*
20,1,$1+$1,$4,$5,$6,$7,0*
20,1,$1+$1,$6,$7,$8,$9,0*
20,1,$1+$1,$8,$9,$2,$3,0*%
%AMFreePoly0*
4,1,29,-11.250000,2.510000,-9.250000,2.510000,-9.250000,5.150000,-6.550000,5.150000,-6.550000,2.510000,-4.550000,2.510000,-4.550000,5.150000,0.450000,5.150000,0.450000,-0.250000,-0.450000,-0.250000,-0.450000,4.650000,-1.850000,4.650000,-1.850000,0.250000,-2.350000,0.250000,-2.350000,4.650000,-4.050000,4.650000,-4.050000,2.010000,-7.050000,2.010000,-7.050000,4.650000,-8.750000,4.650000,
-8.750000,2.010000,-11.750000,2.010000,-11.750000,4.650000,-13.450000,4.650000,-13.450000,0.710000,-13.950000,0.710000,-13.950000,5.150000,-11.250000,5.150000,-11.250000,2.510000,-11.250000,2.510000,$1*%
G04 Aperture macros list end*
%TA.AperFunction,SMDPad,CuDef*%
%ADD10RoundRect,0.062500X0.062500X-0.337500X0.062500X0.337500X-0.062500X0.337500X-0.062500X-0.337500X0*%
%TD*%
%TA.AperFunction,SMDPad,CuDef*%
%ADD11RoundRect,0.062500X0.337500X-0.062500X0.337500X0.062500X-0.337500X0.062500X-0.337500X-0.062500X0*%
%TD*%
%TA.AperFunction,SMDPad,CuDef*%
%ADD12R,3.600000X3.600000*%
%TD*%
%TA.AperFunction,SMDPad,CuDef*%
%ADD13RoundRect,0.155000X-0.155000X0.212500X-0.155000X-0.212500X0.155000X-0.212500X0.155000X0.212500X0*%
%TD*%
%TA.AperFunction,ComponentPad*%
%ADD14R,1.700000X1.700000*%
%TD*%
%TA.AperFunction,ComponentPad*%
%ADD15O,1.700000X1.700000*%
%TD*%
%TA.AperFunction,SMDPad,CuDef*%
%ADD16RoundRect,0.160000X-0.222500X-0.160000X0.222500X-0.160000X0.222500X0.160000X-0.222500X0.160000X0*%
%TD*%
%TA.AperFunction,SMDPad,CuDef*%
%ADD17RoundRect,0.225000X0.225000X0.250000X-0.225000X0.250000X-0.225000X-0.250000X0.225000X-0.250000X0*%
%TD*%
%TA.AperFunction,SMDPad,CuDef*%
%ADD18RoundRect,0.155000X0.212500X0.155000X-0.212500X0.155000X-0.212500X-0.155000X0.212500X-0.155000X0*%
%TD*%
%TA.AperFunction,SMDPad,CuDef*%
%ADD19RoundRect,0.160000X-0.160000X0.222500X-0.160000X-0.222500X0.160000X-0.222500X0.160000X0.222500X0*%
%TD*%
%TA.AperFunction,SMDPad,CuDef*%
%ADD20R,0.750000X2.100000*%
%TD*%
%TA.AperFunction,SMDPad,CuDef*%
%ADD21RoundRect,0.218750X0.218750X0.256250X-0.218750X0.256250X-0.218750X-0.256250X0.218750X-0.256250X0*%
%TD*%
%TA.AperFunction,ComponentPad*%
%ADD22C,0.700000*%
%TD*%
%TA.AperFunction,ComponentPad*%
%ADD23C,4.400000*%
%TD*%
%TA.AperFunction,SMDPad,CuDef*%
%ADD24RoundRect,0.155000X0.155000X-0.212500X0.155000X0.212500X-0.155000X0.212500X-0.155000X-0.212500X0*%
%TD*%
%TA.AperFunction,SMDPad,CuDef*%
%ADD25RoundRect,0.200000X0.250000X-0.200000X0.250000X0.200000X-0.250000X0.200000X-0.250000X-0.200000X0*%
%TD*%
%TA.AperFunction,SMDPad,CuDef*%
%ADD26RoundRect,0.225000X-0.250000X0.225000X-0.250000X-0.225000X0.250000X-0.225000X0.250000X0.225000X0*%
%TD*%
%TA.AperFunction,ConnectorPad*%
%ADD27FreePoly0,0.000000*%
%TD*%
%TA.AperFunction,ConnectorPad*%
%ADD28R,0.500000X0.500000*%
%TD*%
%TA.AperFunction,ComponentPad*%
%ADD29R,0.900000X0.500000*%
%TD*%
%TA.AperFunction,ViaPad*%
%ADD30C,0.508000*%
%TD*%
%TA.AperFunction,Conductor*%
%ADD31C,0.250000*%
%TD*%
%TA.AperFunction,Conductor*%
%ADD32C,1.000000*%
%TD*%
%TA.AperFunction,Conductor*%
%ADD33C,0.300000*%
%TD*%
%TA.AperFunction,Conductor*%
%ADD34C,0.400000*%
%TD*%
%TA.AperFunction,Conductor*%
%ADD35C,0.500000*%
%TD*%
G04 APERTURE END LIST*
D10*
%TO.P,U1,1,DEC1*%
%TO.N,Net-(C5-Pad1)*%
X20208000Y14882000D03*
%TO.P,U1,2,P0.00/XL1*%
%TO.N,unconnected-(U1-Pad2)*%
X20708000Y14882000D03*
%TO.P,U1,3,P0.01/XL2*%
%TO.N,unconnected-(U1-Pad3)*%
X21208000Y14882000D03*
%TO.P,U1,4,P0.04/AIN2*%
%TO.N,unconnected-(U1-Pad4)*%
X21708000Y14882000D03*
%TO.P,U1,5,P0.05/AIN3*%
%TO.N,unconnected-(U1-Pad5)*%
X22208000Y14882000D03*
%TO.P,U1,6,P0.06*%
%TO.N,unconnected-(U1-Pad6)*%
X22708000Y14882000D03*
%TO.P,U1,7,P0.09*%
%TO.N,unconnected-(U1-Pad7)*%
X23208000Y14882000D03*
%TO.P,U1,8,P0.10*%
%TO.N,unconnected-(U1-Pad8)*%
X23708000Y14882000D03*
D11*
%TO.P,U1,9,VDD*%
%TO.N,VDD*%
X24408000Y15582000D03*
%TO.P,U1,10,P0.12*%
%TO.N,unconnected-(U1-Pad10)*%
X24408000Y16082000D03*
%TO.P,U1,11,P0.14*%
%TO.N,unconnected-(U1-Pad11)*%
X24408000Y16582000D03*
%TO.P,U1,12,P0.15*%
%TO.N,unconnected-(U1-Pad12)*%
X24408000Y17082000D03*
%TO.P,U1,13,P0.16*%
%TO.N,unconnected-(U1-Pad13)*%
X24408000Y17582000D03*
%TO.P,U1,14,P0.18*%
%TO.N,unconnected-(U1-Pad14)*%
X24408000Y18082000D03*
%TO.P,U1,15,P0.20*%
%TO.N,unconnected-(U1-Pad15)*%
X24408000Y18582000D03*
%TO.P,U1,16,P0.21/~{RESET}*%
%TO.N,nRESET*%
X24408000Y19082000D03*
D10*
%TO.P,U1,17,SWDCLK*%
%TO.N,SWDCLK*%
X23708000Y19782000D03*
%TO.P,U1,18,SWDIO*%
%TO.N,SWDIO*%
X23208000Y19782000D03*
%TO.P,U1,19,ANT*%
%TO.N,Net-(C6-Pad1)*%
X22708000Y19782000D03*
%TO.P,U1,20,VSS*%
%TO.N,Net-(U1-Pad20)*%
X22208000Y19782000D03*
%TO.P,U1,21,DEC2*%
%TO.N,Net-(C10-Pad1)*%
X21708000Y19782000D03*
%TO.P,U1,22,DEC3*%
%TO.N,Net-(C4-Pad1)*%
X21208000Y19782000D03*
%TO.P,U1,23,XC1*%
%TO.N,Net-(C7-Pad2)*%
X20708000Y19782000D03*
%TO.P,U1,24,XC2*%
%TO.N,Net-(C9-Pad2)*%
X20208000Y19782000D03*
D11*
%TO.P,U1,25,VDD*%
%TO.N,VDD*%
X19508000Y19082000D03*
%TO.P,U1,26,P0.25*%
%TO.N,unconnected-(U1-Pad26)*%
X19508000Y18582000D03*
%TO.P,U1,27,P0.28/AIN4*%
%TO.N,unconnected-(U1-Pad27)*%
X19508000Y18082000D03*
%TO.P,U1,28,P0.30/AIN6*%
%TO.N,unconnected-(U1-Pad28)*%
X19508000Y17582000D03*
%TO.P,U1,29,VSS*%
%TO.N,GND*%
X19508000Y17082000D03*
%TO.P,U1,30,DEC4*%
%TO.N,DCC4*%
X19508000Y16582000D03*
%TO.P,U1,31,DCC*%
%TO.N,DCC*%
X19508000Y16082000D03*
%TO.P,U1,32,VDD*%
%TO.N,VDD*%
X19508000Y15582000D03*
D12*
%TO.P,U1,33,VSS*%
%TO.N,GND*%
X21958000Y17332000D03*
%TD*%
D13*
%TO.P,C9,1*%
%TO.N,GND*%
X12814000Y21963500D03*
%TO.P,C9,2*%
%TO.N,Net-(C9-Pad2)*%
X12814000Y20828500D03*
%TD*%
D14*
%TO.P,J2,1,Pin_1*%
%TO.N,VDD*%
X3625000Y5882000D03*
D15*
%TO.P,J2,2,Pin_2*%
%TO.N,GND*%
X3625000Y3342000D03*
%TD*%
D16*
%TO.P,L3,1,1*%
%TO.N,Net-(L2-Pad2)*%
X15473500Y15046000D03*
%TO.P,L3,2,2*%
%TO.N,DCC4*%
X16618500Y15046000D03*
%TD*%
D13*
%TO.P,C5,1*%
%TO.N,Net-(C5-Pad1)*%
X20688000Y13327500D03*
%TO.P,C5,2*%
%TO.N,GND*%
X20688000Y12192500D03*
%TD*%
D17*
%TO.P,C8,1*%
%TO.N,DCC4*%
X16567000Y16570000D03*
%TO.P,C8,2*%
%TO.N,GND*%
X15017000Y16570000D03*
%TD*%
D18*
%TO.P,C2,1*%
%TO.N,VDD*%
X17953500Y19110000D03*
%TO.P,C2,2*%
%TO.N,GND*%
X16818500Y19110000D03*
%TD*%
D19*
%TO.P,L1,1,1*%
%TO.N,Net-(AE1-Pad1)*%
X23412000Y23746500D03*
%TO.P,L1,2,2*%
%TO.N,Net-(C6-Pad1)*%
X23412000Y22601500D03*
%TD*%
D20*
%TO.P,J1,1,VTref*%
%TO.N,unconnected-(J1-Pad1)*%
X29324000Y4610000D03*
%TO.P,J1,2,SWDIO/TMS*%
%TO.N,SWDIO*%
X29324000Y8210000D03*
%TO.P,J1,3,GND*%
%TO.N,GND*%
X28054000Y4610000D03*
%TO.P,J1,4,SWDCLK/TCK*%
%TO.N,SWDCLK*%
X28054000Y8210000D03*
%TO.P,J1,5,GND*%
%TO.N,GND*%
X26784000Y4610000D03*
%TO.P,J1,6,SWO/TDO*%
%TO.N,unconnected-(J1-Pad6)*%
X26784000Y8210000D03*
%TO.P,J1,7,KEY*%
%TO.N,unconnected-(J1-Pad7)*%
X25514000Y4610000D03*
%TO.P,J1,8,NC/TDI*%
%TO.N,unconnected-(J1-Pad8)*%
X25514000Y8210000D03*
%TO.P,J1,9,GNDDetect*%
%TO.N,unconnected-(J1-Pad9)*%
X24244000Y4610000D03*
%TO.P,J1,10,~{RESET}*%
%TO.N,nRESET*%
X24244000Y8210000D03*
%TD*%
D18*
%TO.P,C6,1*%
%TO.N,Net-(C6-Pad1)*%
X23347000Y21396000D03*
%TO.P,C6,2*%
%TO.N,Net-(U1-Pad20)*%
X22212000Y21396000D03*
%TD*%
D21*
%TO.P,L2,1,1*%
%TO.N,DCC*%
X16579500Y13522000D03*
%TO.P,L2,2,2*%
%TO.N,Net-(L2-Pad2)*%
X15004500Y13522000D03*
%TD*%
D22*
%TO.P,REF\u002A\u002A,1*%
%TO.N,N/C*%
X36238000Y28000000D03*
X33421274Y29166726D03*
X34588000Y26350000D03*
X35754726Y26833274D03*
X35754726Y29166726D03*
X32938000Y28000000D03*
X34588000Y29650000D03*
D23*
X34588000Y28000000D03*
D22*
X33421274Y26833274D03*
%TD*%
D24*
%TO.P,C4,1*%
%TO.N,Net-(C4-Pad1)*%
X19528000Y21844500D03*
%TO.P,C4,2*%
%TO.N,GND*%
X19528000Y22979500D03*
%TD*%
%TO.P,C10,1*%
%TO.N,Net-(C10-Pad1)*%
X20544000Y21844500D03*
%TO.P,C10,2*%
%TO.N,GND*%
X20544000Y22979500D03*
%TD*%
D22*
%TO.P,REF\u002A\u002A,1*%
%TO.N,N/C*%
X5250000Y28000000D03*
X2433274Y26833274D03*
X3600000Y26350000D03*
X2433274Y29166726D03*
D23*
X3600000Y28000000D03*
D22*
X3600000Y29650000D03*
X1950000Y28000000D03*
X4766726Y29166726D03*
X4766726Y26833274D03*
%TD*%
D13*
%TO.P,C7,1*%
%TO.N,GND*%
X17386000Y21963500D03*
%TO.P,C7,2*%
%TO.N,Net-(C7-Pad2)*%
X17386000Y20828500D03*
%TD*%
D25*
%TO.P,Y1,1,1*%
%TO.N,Net-(C9-Pad2)*%
X14175000Y20671000D03*
%TO.P,Y1,2*%
%TO.N,N/C*%
X16025000Y20671000D03*
%TO.P,Y1,3,3*%
%TO.N,Net-(C7-Pad2)*%
X16025000Y22121000D03*
%TO.P,Y1,4*%
%TO.N,N/C*%
X14175000Y22121000D03*
%TD*%
D26*
%TO.P,C3,1*%
%TO.N,VDD*%
X19164000Y13281000D03*
%TO.P,C3,2*%
%TO.N,GND*%
X19164000Y11731000D03*
%TD*%
D13*
%TO.P,C1,1*%
%TO.N,VDD*%
X25768000Y15359500D03*
%TO.P,C1,2*%
%TO.N,GND*%
X25768000Y14224500D03*
%TD*%
D22*
%TO.P,REF\u002A\u002A,1*%
%TO.N,N/C*%
X33421274Y4782726D03*
X36238000Y3616000D03*
X35754726Y4782726D03*
X34588000Y1966000D03*
X33421274Y2449274D03*
X35754726Y2449274D03*
X34588000Y5266000D03*
X32938000Y3616000D03*
D23*
X34588000Y3616000D03*
%TD*%
D27*
%TO.P,AE1,*%
%TO.N,GND*%
X25494800Y25358400D03*
D28*
%TO.P,AE1,1,A*%
%TO.N,Net-(AE1-Pad1)*%
X23394800Y25358400D03*
D29*
%TO.P,AE1,2*%
%TO.N,GND*%
X25494800Y25358400D03*
%TD*%
D30*
%TO.N,GND*%
X18200000Y17600000D03*
X17316000Y25714000D03*
X18332000Y22920000D03*
X24936000Y21904000D03*
X30016000Y22412000D03*
X2076000Y7172000D03*
X12213136Y2094596D03*
X32556000Y22412000D03*
X9673655Y2094596D03*
X2076000Y17332000D03*
X30016000Y12760000D03*
X26460000Y25714000D03*
X7129503Y7198497D03*
X7129503Y4659016D03*
X26968000Y19872000D03*
X22904000Y10220000D03*
X13252000Y25714000D03*
X10712000Y9204000D03*
X11220000Y25714000D03*
X32549107Y17334892D03*
X13760000Y15300000D03*
X15284000Y25714000D03*
X9668984Y4659016D03*
X35096000Y7172000D03*
X29989503Y2094596D03*
X14522000Y15300000D03*
X9694961Y22438497D03*
X21380000Y5648000D03*
X25698000Y13268000D03*
X32556000Y19872000D03*
X13754828Y16079264D03*
X4616000Y17332000D03*
X27450022Y2094596D03*
X2049503Y22438497D03*
X4615999Y19899016D03*
X7156000Y25714000D03*
X19348000Y25714000D03*
X21380000Y25714000D03*
X7156000Y17332000D03*
X22904000Y16316000D03*
X21888000Y22920000D03*
X2049503Y19899016D03*
X10712000Y17332000D03*
X9188000Y25714000D03*
X11728000Y21396000D03*
X28492000Y25714000D03*
X35088588Y19874373D03*
X23412000Y5648000D03*
X24428000Y25714000D03*
X22904000Y13776000D03*
X32556000Y7172000D03*
X20872000Y16316000D03*
X20872000Y18348000D03*
X35088588Y17334892D03*
X35096000Y22412000D03*
X5124000Y25714000D03*
X4615999Y22438497D03*
X22396000Y25714000D03*
X30009626Y19874373D03*
X2076000Y4632000D03*
X15284000Y5648000D03*
X13252000Y5648000D03*
X7155480Y19899016D03*
X2050541Y2092520D03*
X21888000Y13014000D03*
X7155480Y22438497D03*
X12744000Y23428000D03*
X36620000Y25714000D03*
X22904000Y18348000D03*
X30516909Y25721091D03*
X32556000Y25714000D03*
X1060000Y25714000D03*
X7129503Y2092520D03*
X21888000Y13776000D03*
%TD*%
D31*
%TO.N,GND*%
X15017000Y16557000D02*
X13760000Y15300000D01*
X15017000Y16570000D02*
X15017000Y16557000D01*
%TO.N,DCC4*%
X16618500Y16518500D02*
X16567000Y16570000D01*
X16618500Y15046000D02*
X16618500Y16518500D01*
X16579000Y16582000D02*
X16567000Y16570000D01*
X19508000Y16582000D02*
X16579000Y16582000D01*
%TO.N,Net-(U1-Pad20)*%
X22208000Y21392000D02*
X22212000Y21396000D01*
X22208000Y19782000D02*
X22208000Y21392000D01*
%TO.N,GND*%
X18718000Y17082000D02*
X18200000Y17600000D01*
X19508000Y17082000D02*
X18718000Y17082000D01*
D32*
%TO.N,Net-(AE1-Pad1)*%
X23412000Y25206000D02*
X23412000Y23746500D01*
D33*
%TO.N,GND*%
X21708000Y17082000D02*
X21958000Y17332000D01*
X13942983Y15625016D02*
X14268000Y15300000D01*
X14522000Y15300000D02*
X14268000Y15300000D01*
X13754828Y16079264D02*
X13754828Y15925696D01*
X14167791Y15908209D02*
X14268000Y15808000D01*
X13763378Y16058621D02*
X14522000Y15300000D01*
X14268000Y15300000D02*
X14014000Y15300000D01*
D34*
X19164000Y11731000D02*
X19573841Y11731000D01*
D33*
X19508000Y17082000D02*
X21708000Y17082000D01*
X14342395Y15733605D02*
X14268000Y15808000D01*
X13754828Y16079264D02*
X13754828Y15312486D01*
X14014000Y15300000D02*
X13760000Y15300000D01*
X14268000Y15808000D02*
X13760000Y15300000D01*
D34*
X20688000Y12192500D02*
G75*
G02*
X19573841Y11731000I-1114156J1114150D01*
G01*
D33*
X14167791Y15908209D02*
G75*
G03*
X13754828Y16079264I-412964J-412965D01*
G01*
X13763378Y16058621D02*
G75*
G02*
X13754828Y16079264I20643J20642D01*
G01*
X14014000Y15300000D02*
G75*
G02*
X13754828Y15925696I625690J625694D01*
G01*
X13942983Y15625016D02*
G75*
G02*
X13754828Y16079264I454252J454249D01*
G01*
X14342395Y15733605D02*
G75*
G02*
X14522000Y15300000I-433609J-433606D01*
G01*
X13760000Y15300000D02*
G75*
G02*
X13754828Y15312486I12486J12486D01*
G01*
D31*
%TO.N,Net-(C4-Pad1)*%
X19528000Y21814857D02*
X20196769Y21146088D01*
X20206638Y21142000D02*
X20872000Y21142000D01*
X21208000Y20330825D02*
X21208000Y19782000D01*
X19528000Y21844500D02*
X19528000Y21814857D01*
X20206638Y21142001D02*
G75*
G02*
X20196770Y21146089I-2J13951D01*
G01*
X21208000Y20330825D02*
G75*
G03*
X20872000Y21142000I-1147173J0D01*
G01*
%TO.N,Net-(C5-Pad1)*%
X20208000Y14882000D02*
X20208000Y14486322D01*
X20688000Y13327500D02*
G75*
G02*
X20208000Y14486322I1158815J1158820D01*
G01*
D33*
%TO.N,Net-(C6-Pad1)*%
X22708000Y19782000D02*
X22707520Y19782480D01*
D35*
X23347000Y21396000D02*
X23347000Y22536500D01*
D33*
X22707520Y19782480D02*
X22707520Y20413656D01*
D35*
X23347000Y22536500D02*
X23412000Y22601500D01*
D33*
X22904000Y20888000D02*
X23301038Y21285038D01*
X23347000Y21396000D02*
G75*
G02*
X23301038Y21285038I-156919J-2D01*
G01*
X22904000Y20888000D02*
G75*
G03*
X22707520Y20413656I474338J-474342D01*
G01*
D31*
%TO.N,Net-(C7-Pad2)*%
X16025000Y22121000D02*
X16093500Y22121000D01*
X20708000Y19782000D02*
X20708000Y20162721D01*
X20618000Y20380000D02*
X20543605Y20454395D01*
X16093500Y22121000D02*
X17386000Y20828500D01*
X20110000Y20634000D02*
X17855564Y20634000D01*
X20618000Y20380000D02*
G75*
G02*
X20708000Y20162721I-217279J-217279D01*
G01*
X17386000Y20828500D02*
G75*
G03*
X17855564Y20634000I469565J469565D01*
G01*
X20110000Y20634000D02*
G75*
G02*
X20543605Y20454395I0J-613209D01*
G01*
D33*
%TO.N,DCC*%
X18739494Y16082000D02*
X19508000Y16082000D01*
X16579500Y13522000D02*
X17446758Y14389258D01*
X18003605Y15733605D02*
X18078000Y15808000D01*
X18739494Y16082000D02*
G75*
G03*
X18078000Y15808000I-1J-935490D01*
G01*
X17823999Y15300000D02*
G75*
G02*
X17446757Y14389259I-1287982J0D01*
G01*
X18003605Y15733605D02*
G75*
G03*
X17824000Y15300000I433609J-433606D01*
G01*
D31*
%TO.N,Net-(C9-Pad2)*%
X20208000Y19782000D02*
X16321235Y19782000D01*
X14175000Y20671000D02*
X12971500Y20671000D01*
X12971500Y20671000D02*
X12814000Y20828500D01*
X14175000Y20671000D02*
G75*
G03*
X16321235Y19782000I2146232J2146228D01*
G01*
%TO.N,Net-(C10-Pad1)*%
X21708000Y19782000D02*
X21708000Y20244928D01*
X20656436Y21844500D02*
X20544000Y21844500D01*
X20656436Y21844499D02*
G75*
G02*
X21125999Y21649999I1J-664060D01*
G01*
X21126000Y21650000D02*
G75*
G02*
X21708000Y20244928I-1405064J-1405069D01*
G01*
%TO.N,SWDIO*%
X23920000Y20634000D02*
X24576790Y20634000D01*
X23208000Y20303480D02*
X23268772Y20364252D01*
X23208000Y19782000D02*
X23208000Y20303480D01*
X29324000Y10399642D02*
X29324000Y8210000D01*
X25190000Y20380000D02*
G75*
G03*
X24576790Y20634000I-613210J-613209D01*
G01*
X29324000Y10399642D02*
G75*
G03*
X25190000Y20380000I-14114356J0D01*
G01*
X23920000Y20633999D02*
G75*
G03*
X23268773Y20364251I4J-920983D01*
G01*
%TO.N,SWDCLK*%
X24794069Y19782000D02*
X23708000Y19782000D01*
X28054000Y8210000D02*
X28054000Y12703693D01*
X24794069Y19782000D02*
G75*
G02*
X25190000Y19618000I2J-559925D01*
G01*
X25190000Y19618000D02*
G75*
G02*
X28054000Y12703693I-6914302J-6914305D01*
G01*
%TO.N,nRESET*%
X24855328Y19082000D02*
X25069186Y18868142D01*
X24855328Y19082000D02*
X24408000Y19082000D01*
X24244000Y8952154D02*
X24244000Y8210000D01*
X26069974Y12115975D02*
X25190000Y11236000D01*
X24244001Y8952154D02*
G75*
G02*
X25190001Y11235999I3229838J3D01*
G01*
X26069974Y12115975D02*
G75*
G03*
X26968000Y14284000I-2168018J2168023D01*
G01*
X26967999Y14284000D02*
G75*
G03*
X25069185Y18868141I-6482952J1D01*
G01*
D33*
%TO.N,Net-(L2-Pad2)*%
X15473500Y15046000D02*
X15473500Y14654266D01*
X15004500Y13522000D02*
G75*
G03*
X15473500Y14654266I-1132269J1132267D01*
G01*
D34*
%TO.N,VDD*%
X11474000Y10220000D02*
X10204000Y10220000D01*
X6378373Y8635374D02*
X3625000Y5882000D01*
D33*
X25545500Y15582000D02*
X25768000Y15359500D01*
X15984370Y17840000D02*
X14986420Y17840000D01*
D34*
X18199484Y12881485D02*
X17570000Y12252000D01*
X12664319Y10220000D02*
X11474000Y10220000D01*
D33*
X19508000Y19082000D02*
X17981500Y19082000D01*
X17953500Y19110000D02*
X17953500Y18914640D01*
X19508000Y15582000D02*
X19508000Y14111489D01*
X25316471Y15172470D02*
X24682000Y14538000D01*
X22544790Y10876790D02*
X22396000Y10728000D01*
X11845974Y10591975D02*
X11474000Y10220000D01*
X12744000Y14879160D02*
X12744000Y12760000D01*
X24408000Y15582000D02*
X25545500Y15582000D01*
X24682000Y14538000D02*
X23622421Y13478421D01*
X17981500Y19082000D02*
X17953500Y19110000D01*
X21169580Y10220000D02*
X12664319Y10220000D01*
X21169580Y10220000D02*
G75*
G03*
X22396000Y10728000I-3J1734426D01*
G01*
D34*
X6378373Y8635374D02*
G75*
G02*
X10204000Y10220000I3825628J-3825632D01*
G01*
D33*
X15984370Y17840001D02*
G75*
G03*
X17824000Y18602000I-2J2601634D01*
G01*
X13760000Y17332000D02*
G75*
G02*
X14986420Y17840000I1226417J-1226413D01*
G01*
X19164000Y13281000D02*
G75*
G03*
X19508000Y14111489I-830483J830487D01*
G01*
X22544790Y10876790D02*
G75*
G03*
X22904000Y11744000I-867213J867211D01*
G01*
D34*
X18199484Y12881485D02*
G75*
G02*
X19164000Y13281000I964518J-964524D01*
G01*
D33*
X22904001Y11744000D02*
G75*
G02*
X23622422Y13478420I2452840J0D01*
G01*
X11845974Y10591975D02*
G75*
G03*
X12744000Y12760000I-2168018J2168023D01*
G01*
X12744001Y14879160D02*
G75*
G02*
X13760001Y17331999I3468838J0D01*
G01*
X17824000Y18602000D02*
G75*
G03*
X17953500Y18914640I-312642J312641D01*
G01*
X25316471Y15172470D02*
G75*
G02*
X25768000Y15359500I451526J-451520D01*
G01*
D34*
X12664319Y10220000D02*
G75*
G03*
X17570000Y12252000I-1J6937682D01*
G01*
%TD*%
%TA.AperFunction,Conductor*%
%TO.N,GND*%
G36*
X2022752Y25792307D02*
G01*
X2025189Y25790575D01*
X2028149Y25788191D01*
X2305253Y25615373D01*
X2601112Y25477097D01*
X2604721Y25475914D01*
X2827653Y25402833D01*
X2911440Y25375366D01*
X3231742Y25311654D01*
X3235514Y25311367D01*
X3235522Y25311366D01*
X3553602Y25287171D01*
X3553607Y25287171D01*
X3557379Y25286884D01*
X3883633Y25301414D01*
X3943425Y25311366D01*
X4202037Y25354410D01*
X4202042Y25354411D01*
X4205778Y25355033D01*
X4519149Y25446966D01*
X4522616Y25448456D01*
X4522620Y25448457D01*
X4815721Y25574384D01*
X4815723Y25574385D01*
X4819205Y25575881D01*
X5101601Y25739909D01*
X5104623Y25742190D01*
X5104627Y25742193D01*
X5168168Y25790162D01*
X5234588Y25815242D01*
X5244085Y25815600D01*
X22383173Y25815600D01*
X22451294Y25795598D01*
X22497787Y25741942D01*
X22507891Y25671668D01*
X22493589Y25628901D01*
X22488759Y25620114D01*
X22480567Y25605213D01*
X22478706Y25599346D01*
X22478705Y25599344D01*
X22471867Y25577788D01*
X22420765Y25416694D01*
X22403500Y25262773D01*
X22403500Y23696731D01*
X22403800Y23693675D01*
X22403800Y23693668D01*
X22404530Y23686227D01*
X22417920Y23549667D01*
X22475084Y23360331D01*
X22567934Y23185704D01*
X22571830Y23180927D01*
X22595003Y23152514D01*
X22622557Y23087082D01*
X22617594Y23035200D01*
X22589866Y22946719D01*
X22583500Y22877437D01*
X22583500Y22874539D01*
X22583501Y22340500D01*
X22563499Y22272379D01*
X22509844Y22225886D01*
X22457501Y22214500D01*
X21946468Y22214500D01*
X21877699Y22208181D01*
X21804319Y22185185D01*
X21731704Y22162429D01*
X21731702Y22162428D01*
X21724455Y22160157D01*
X21717958Y22156222D01*
X21717953Y22156220D01*
X21675254Y22130361D01*
X21606625Y22112182D01*
X21539061Y22133993D01*
X21528153Y22142326D01*
X21511886Y22156220D01*
X21438180Y22219171D01*
X21425245Y22230219D01*
X21425244Y22230219D01*
X21421483Y22233432D01*
X21358028Y22272318D01*
X21309693Y22327145D01*
X21308157Y22332045D01*
X21304225Y22338537D01*
X21304223Y22338542D01*
X21298973Y22347210D01*
X21280793Y22415839D01*
X21298974Y22477757D01*
X21303766Y22485669D01*
X21309971Y22499411D01*
X21353685Y22638904D01*
X21356298Y22651954D01*
X21361537Y22708962D01*
X21357525Y22722624D01*
X21356135Y22723829D01*
X21348452Y22725500D01*
X18728115Y22725500D01*
X18712876Y22721025D01*
X18711671Y22719635D01*
X18710187Y22712814D01*
X18710266Y22711112D01*
X18715702Y22651954D01*
X18718315Y22638904D01*
X18762029Y22499411D01*
X18768234Y22485669D01*
X18773026Y22477757D01*
X18791207Y22409128D01*
X18773027Y22347210D01*
X18763843Y22332045D01*
X18761572Y22324798D01*
X18761571Y22324796D01*
X18745145Y22272379D01*
X18715819Y22178801D01*
X18709500Y22110032D01*
X18709500Y21578968D01*
X18715819Y21510199D01*
X18717820Y21503815D01*
X18740582Y21431179D01*
X18741866Y21360194D01*
X18704569Y21299783D01*
X18640532Y21269127D01*
X18620348Y21267500D01*
X18250554Y21267500D01*
X18182433Y21287502D01*
X18142779Y21328228D01*
X18140973Y21331210D01*
X18122793Y21399839D01*
X18140974Y21461757D01*
X18145766Y21469669D01*
X18151971Y21483411D01*
X18195685Y21622904D01*
X18198298Y21635954D01*
X18203537Y21692962D01*
X18199525Y21706624D01*
X18198135Y21707829D01*
X18190452Y21709500D01*
X17453094Y21709500D01*
X17384973Y21729502D01*
X17363999Y21746405D01*
X17168905Y21941499D01*
X17134879Y22003811D01*
X17132000Y22030594D01*
X17132000Y22235615D01*
X17640000Y22235615D01*
X17644475Y22220376D01*
X17645865Y22219171D01*
X17653548Y22217500D01*
X18185885Y22217500D01*
X18201124Y22221975D01*
X18202329Y22223365D01*
X18203813Y22230186D01*
X18203734Y22231888D01*
X18198298Y22291046D01*
X18195685Y22304096D01*
X18151971Y22443589D01*
X18145765Y22457334D01*
X18070504Y22581604D01*
X18061197Y22593473D01*
X17958473Y22696197D01*
X17946604Y22705504D01*
X17822334Y22780765D01*
X17808589Y22786971D01*
X17669088Y22830687D01*
X17657497Y22833009D01*
X17643165Y22830194D01*
X17640000Y22818298D01*
X17640000Y22235615D01*
X17132000Y22235615D01*
X17132000Y22816658D01*
X17127729Y22831203D01*
X17115698Y22833248D01*
X17102912Y22830687D01*
X16963411Y22786971D01*
X16942741Y22777638D01*
X16941940Y22779412D01*
X16883070Y22763821D01*
X16815508Y22785634D01*
X16797339Y22800681D01*
X16715381Y22882639D01*
X16568699Y22971472D01*
X16561452Y22973743D01*
X16561450Y22973744D01*
X16495164Y22994517D01*
X16405062Y23022753D01*
X16331635Y23029500D01*
X16328737Y23029500D01*
X16024205Y23029499D01*
X15718366Y23029499D01*
X15715508Y23029236D01*
X15715499Y23029236D01*
X15679996Y23025974D01*
X15644938Y23022753D01*
X15638560Y23020754D01*
X15638559Y23020754D01*
X15488550Y22973744D01*
X15488548Y22973743D01*
X15481301Y22971472D01*
X15334619Y22882639D01*
X15213361Y22761381D01*
X15209424Y22754880D01*
X15207776Y22752159D01*
X15206060Y22750590D01*
X15204738Y22748904D01*
X15204457Y22749124D01*
X15155379Y22704252D01*
X15085399Y22692279D01*
X15020055Y22720040D01*
X14992224Y22752159D01*
X14990576Y22754880D01*
X14986639Y22761381D01*
X14865381Y22882639D01*
X14718699Y22971472D01*
X14711452Y22973743D01*
X14711450Y22973744D01*
X14645164Y22994517D01*
X14555062Y23022753D01*
X14481635Y23029500D01*
X14478737Y23029500D01*
X14174205Y23029499D01*
X13868366Y23029499D01*
X13865508Y23029236D01*
X13865499Y23029236D01*
X13829996Y23025974D01*
X13794938Y23022753D01*
X13788560Y23020754D01*
X13788559Y23020754D01*
X13638550Y22973744D01*
X13638548Y22973743D01*
X13631301Y22971472D01*
X13484619Y22882639D01*
X13402661Y22800681D01*
X13340349Y22766655D01*
X13269534Y22771720D01*
X13257267Y22777657D01*
X13257259Y22777638D01*
X13236589Y22786971D01*
X13097088Y22830687D01*
X13085497Y22833009D01*
X13071165Y22830194D01*
X13068000Y22818298D01*
X13068000Y21835500D01*
X13047998Y21767379D01*
X12994342Y21720886D01*
X12942000Y21709500D01*
X12014115Y21709500D01*
X11998876Y21705025D01*
X11997671Y21703635D01*
X11996187Y21696814D01*
X11996266Y21695112D01*
X12001702Y21635954D01*
X12004315Y21622904D01*
X12048029Y21483411D01*
X12054234Y21469669D01*
X12059026Y21461757D01*
X12077207Y21393128D01*
X12059027Y21331210D01*
X12049843Y21316045D01*
X12047572Y21308798D01*
X12047571Y21308796D01*
X12031692Y21258124D01*
X12001819Y21162801D01*
X11995500Y21094032D01*
X11995500Y20562968D01*
X12001819Y20494199D01*
X12049843Y20340955D01*
X12133034Y20203590D01*
X12246590Y20090034D01*
X12383955Y20006843D01*
X12391202Y20004572D01*
X12391204Y20004571D01*
X12434650Y19990956D01*
X12537199Y19958819D01*
X12605968Y19952500D01*
X13022032Y19952500D01*
X13090801Y19958819D01*
X13193350Y19990956D01*
X13236796Y20004571D01*
X13236798Y20004572D01*
X13244045Y20006843D01*
X13250542Y20010777D01*
X13257466Y20013904D01*
X13258246Y20012176D01*
X13317282Y20027816D01*
X13384846Y20006009D01*
X13403024Y19990956D01*
X13484619Y19909361D01*
X13631301Y19820528D01*
X13638548Y19818257D01*
X13638550Y19818256D01*
X13704836Y19797483D01*
X13794938Y19769247D01*
X13868365Y19762500D01*
X13899065Y19762500D01*
X14251383Y19762501D01*
X14319082Y19742768D01*
X14485120Y19636990D01*
X14769283Y19489064D01*
X15065258Y19366467D01*
X15067878Y19365641D01*
X15067886Y19365638D01*
X15368162Y19270962D01*
X15368167Y19270961D01*
X15370792Y19270133D01*
X15683559Y19200794D01*
X15686278Y19200436D01*
X15686284Y19200435D01*
X15793479Y19186323D01*
X16001180Y19158979D01*
X16003929Y19158859D01*
X16003940Y19158858D01*
X16187906Y19150826D01*
X16285490Y19146566D01*
X16297730Y19145430D01*
X16307872Y19143987D01*
X16314915Y19143913D01*
X16317116Y19143890D01*
X16317118Y19143890D01*
X16321236Y19143847D01*
X16325326Y19144342D01*
X16325327Y19144342D01*
X16334309Y19145429D01*
X16352143Y19147587D01*
X16367278Y19148500D01*
X16946500Y19148500D01*
X17014621Y19128498D01*
X17061114Y19074842D01*
X17072500Y19022500D01*
X17072500Y18982000D01*
X17052498Y18913879D01*
X16998842Y18867386D01*
X16946500Y18856000D01*
X15965342Y18856000D01*
X15950797Y18851729D01*
X15948752Y18839698D01*
X15951313Y18826912D01*
X15995030Y18687407D01*
X16000024Y18676347D01*
X16009825Y18606031D01*
X15980054Y18541578D01*
X15920163Y18503452D01*
X15885186Y18498500D01*
X15042194Y18498500D01*
X15024442Y18499757D01*
X15013269Y18501347D01*
X15004390Y18502611D01*
X15004386Y18502611D01*
X15000313Y18503191D01*
X14992583Y18503272D01*
X14990542Y18503293D01*
X14986421Y18503336D01*
X14974003Y18501833D01*
X14965957Y18501121D01*
X14718077Y18487200D01*
X14453107Y18442181D01*
X14194843Y18367776D01*
X14191575Y18366422D01*
X14191574Y18366422D01*
X13949803Y18266278D01*
X13949798Y18266275D01*
X13946535Y18264924D01*
X13711303Y18134916D01*
X13492107Y17979388D01*
X13363672Y17864610D01*
X13320837Y17826330D01*
X13312532Y17819523D01*
X13304453Y17813457D01*
X13304441Y17813446D01*
X13300876Y17810770D01*
X13300875Y17810769D01*
X13297136Y17807107D01*
X13297130Y17807102D01*
X13294803Y17804823D01*
X13290950Y17801049D01*
X13288413Y17797814D01*
X13288407Y17797807D01*
X13286657Y17795575D01*
X13280407Y17788206D01*
X13049968Y17536726D01*
X13049961Y17536718D01*
X13048103Y17534690D01*
X13046421Y17532498D01*
X12837937Y17260796D01*
X12828701Y17248760D01*
X12635055Y16944795D01*
X12633788Y16942362D01*
X12633785Y16942356D01*
X12469908Y16627553D01*
X12468637Y16625111D01*
X12330715Y16292138D01*
X12329889Y16289518D01*
X12329886Y16289510D01*
X12223166Y15951036D01*
X12222339Y15948412D01*
X12221744Y15945728D01*
X12151113Y15627133D01*
X12144332Y15596548D01*
X12143973Y15593818D01*
X12143971Y15593809D01*
X12134404Y15521138D01*
X12097290Y15239224D01*
X12097170Y15236475D01*
X12097169Y15236464D01*
X12082694Y14904926D01*
X12081736Y14893975D01*
X12081691Y14893637D01*
X12081691Y14893632D01*
X12080700Y14886106D01*
X12083001Y14865268D01*
X12084739Y14849522D01*
X12085500Y14835695D01*
X12085500Y12811664D01*
X12084422Y12795217D01*
X12080700Y12766946D01*
X12081534Y12759394D01*
X12082989Y12746209D01*
X12083552Y12725320D01*
X12081461Y12688080D01*
X12071804Y12516108D01*
X12070759Y12497506D01*
X12069178Y12483469D01*
X12061464Y12438069D01*
X12026323Y12231245D01*
X12023179Y12217470D01*
X11952355Y11971634D01*
X11947688Y11958297D01*
X11887055Y11811915D01*
X11850927Y11724694D01*
X11849786Y11721940D01*
X11843657Y11709213D01*
X11719901Y11485294D01*
X11712394Y11473346D01*
X11564336Y11264678D01*
X11555538Y11253646D01*
X11493689Y11184437D01*
X11408523Y11089137D01*
X11391285Y11073142D01*
X11381862Y11065911D01*
X11377113Y11059983D01*
X11358847Y11037184D01*
X11349609Y11026870D01*
X11314163Y10991423D01*
X11288145Y10965405D01*
X11225833Y10931380D01*
X11199049Y10928500D01*
X10263331Y10928500D01*
X10245577Y10929757D01*
X10223030Y10932966D01*
X10223029Y10932966D01*
X10218947Y10933547D01*
X10211814Y10933622D01*
X10208132Y10933661D01*
X10208126Y10933661D01*
X10204000Y10933704D01*
X10194037Y10932498D01*
X10183397Y10931665D01*
X9767215Y10916801D01*
X9764980Y10916561D01*
X9764970Y10916560D01*
X9334903Y10870323D01*
X9334894Y10870322D01*
X9332655Y10870081D01*
X9330438Y10869681D01*
X9330431Y10869680D01*
X8904740Y10792877D01*
X8904730Y10792875D01*
X8902536Y10792479D01*
X8479049Y10684390D01*
X8064352Y10546366D01*
X8062292Y10545513D01*
X8062282Y10545509D01*
X7662624Y10379965D01*
X7662618Y10379962D01*
X7660558Y10379109D01*
X7658567Y10378113D01*
X7658553Y10378106D01*
X7383624Y10240486D01*
X7269724Y10183472D01*
X6893843Y9960452D01*
X6891997Y9959170D01*
X6891995Y9959169D01*
X6544758Y9718077D01*
X6534830Y9711184D01*
X6533102Y9709791D01*
X6533088Y9709781D01*
X6416814Y9616081D01*
X6194514Y9436941D01*
X6056166Y9308134D01*
X5901991Y9164592D01*
X5891786Y9156052D01*
X5887688Y9152975D01*
X5884388Y9150497D01*
X5873708Y9140039D01*
X5871165Y9136795D01*
X5871159Y9136789D01*
X5851664Y9111925D01*
X5841605Y9100576D01*
X4018435Y7277405D01*
X3956123Y7243380D01*
X3929340Y7240500D01*
X2726866Y7240500D01*
X2664684Y7233745D01*
X2528295Y7182615D01*
X2411739Y7095261D01*
X2324385Y6978705D01*
X2273255Y6842316D01*
X2266500Y6780134D01*
X2266500Y4983866D01*
X2273255Y4921684D01*
X2324385Y4785295D01*
X2411739Y4668739D01*
X2528295Y4581385D01*
X2536704Y4578233D01*
X2536705Y4578232D01*
X2645960Y4537274D01*
X2702725Y4494633D01*
X2727425Y4428071D01*
X2712218Y4358722D01*
X2692825Y4332241D01*
X2569590Y4203283D01*
X2563104Y4195273D01*
X2443098Y4019351D01*
X2438000Y4010377D01*
X2348338Y3817217D01*
X2344775Y3807530D01*
X2289389Y3607817D01*
X2290912Y3599393D01*
X2303292Y3596000D01*
X4943344Y3596000D01*
X4956875Y3599973D01*
X4958180Y3609053D01*
X4916214Y3776125D01*
X4912894Y3785876D01*
X4827972Y3981186D01*
X4823105Y3990261D01*
X4707426Y4169074D01*
X4701136Y4177243D01*
X4557293Y4335323D01*
X4526241Y4399169D01*
X4534635Y4469667D01*
X4579812Y4524436D01*
X4606256Y4538105D01*
X4713297Y4578233D01*
X4721705Y4581385D01*
X4838261Y4668739D01*
X4925615Y4785295D01*
X4976745Y4921684D01*
X4983500Y4983866D01*
X4983500Y6186340D01*
X5003502Y6254461D01*
X5020405Y6275435D01*
X6840488Y8095519D01*
X6852880Y8106387D01*
X6871698Y8120826D01*
X6871700Y8120828D01*
X6877725Y8125451D01*
X6894776Y8146734D01*
X6907581Y8160478D01*
X7146822Y8381629D01*
X7154345Y8388054D01*
X7314947Y8514663D01*
X7436500Y8610488D01*
X7444488Y8616291D01*
X7743229Y8815903D01*
X7751665Y8821072D01*
X8065124Y8996618D01*
X8073939Y9001110D01*
X8400223Y9151528D01*
X8409360Y9155313D01*
X8746439Y9279668D01*
X8755849Y9282725D01*
X9101626Y9380244D01*
X9111246Y9382554D01*
X9463626Y9452647D01*
X9473397Y9454195D01*
X9830192Y9496424D01*
X9840055Y9497200D01*
X10157290Y9509665D01*
X10178685Y9508684D01*
X10188996Y9507326D01*
X10188999Y9507326D01*
X10196526Y9506335D01*
X10236416Y9510739D01*
X10250243Y9511500D01*
X12604988Y9511500D01*
X12622742Y9510243D01*
X12645289Y9507034D01*
X12645290Y9507034D01*
X12649372Y9506453D01*
X12656462Y9506379D01*
X12660186Y9506339D01*
X12660192Y9506339D01*
X12664319Y9506296D01*
X12671371Y9507149D01*
X12682380Y9507995D01*
X12965504Y9517264D01*
X13162632Y9523717D01*
X13162640Y9523717D01*
X13164671Y9523784D01*
X13166709Y9523985D01*
X13166713Y9523985D01*
X13541448Y9560893D01*
X13553798Y9561500D01*
X21113808Y9561500D01*
X21131560Y9560243D01*
X21139701Y9559085D01*
X21151612Y9557389D01*
X21151616Y9557389D01*
X21155689Y9556809D01*
X21163419Y9556728D01*
X21165460Y9556707D01*
X21169581Y9556664D01*
X21181999Y9558167D01*
X21190045Y9558879D01*
X21437925Y9572800D01*
X21702894Y9617821D01*
X21961157Y9692225D01*
X22109418Y9753637D01*
X22206197Y9793724D01*
X22206202Y9793726D01*
X22209465Y9795078D01*
X22444695Y9925085D01*
X22484058Y9953014D01*
X22661007Y10078566D01*
X22663891Y10080612D01*
X22798810Y10201183D01*
X22800010Y10199841D01*
X22802853Y10203501D01*
X22802807Y10203547D01*
X22811658Y10212398D01*
X22816791Y10217252D01*
X22821734Y10221669D01*
X22835168Y10233675D01*
X22843468Y10240479D01*
X22855123Y10249229D01*
X22865049Y10258950D01*
X22885201Y10284651D01*
X22895260Y10296000D01*
X22970984Y10371724D01*
X22984426Y10383389D01*
X22995455Y10391670D01*
X23003914Y10398021D01*
X23013840Y10407741D01*
X23016379Y10410979D01*
X23016385Y10410986D01*
X23020576Y10416331D01*
X23024998Y10421662D01*
X23173471Y10590964D01*
X23173475Y10590970D01*
X23176196Y10594072D01*
X23313471Y10799518D01*
X23320071Y10812900D01*
X23388744Y10952158D01*
X23422755Y11021125D01*
X23439555Y11070616D01*
X23500851Y11251187D01*
X23500852Y11251191D01*
X23502179Y11255100D01*
X23504086Y11264686D01*
X23549581Y11493401D01*
X23549582Y11493407D01*
X23550384Y11497440D01*
X23554341Y11557800D01*
X23563991Y11705042D01*
X23564978Y11714553D01*
X23566610Y11726021D01*
X23566611Y11726029D01*
X23567191Y11730107D01*
X23567336Y11743999D01*
X23566932Y11747335D01*
X23565610Y11758263D01*
X23564968Y11781636D01*
X23577312Y11969966D01*
X23579463Y11986306D01*
X23614474Y12162320D01*
X23622032Y12200315D01*
X23626295Y12216225D01*
X23696433Y12422845D01*
X23702739Y12438069D01*
X23799244Y12633762D01*
X23807485Y12648036D01*
X23928709Y12829460D01*
X23938736Y12842528D01*
X24060729Y12981635D01*
X24078751Y12998514D01*
X24086533Y13004485D01*
X24091279Y13010409D01*
X24091282Y13010412D01*
X24109549Y13033214D01*
X24118789Y13043529D01*
X24818299Y13743039D01*
X24880611Y13777065D01*
X24951426Y13772000D01*
X25008262Y13729453D01*
X25015170Y13719215D01*
X25083493Y13606399D01*
X25092803Y13594527D01*
X25195527Y13491803D01*
X25207396Y13482496D01*
X25331666Y13407235D01*
X25345411Y13401029D01*
X25484912Y13357313D01*
X25496503Y13354991D01*
X25510835Y13357806D01*
X25514000Y13369702D01*
X25514000Y14352500D01*
X25534002Y14420621D01*
X25587658Y14467114D01*
X25640000Y14478500D01*
X25896000Y14478500D01*
X25964121Y14458498D01*
X26010614Y14404842D01*
X26022000Y14352500D01*
X26022000Y13371342D01*
X26026475Y13356103D01*
X26042392Y13342311D01*
X26080776Y13282585D01*
X26080776Y13211588D01*
X26070158Y13186138D01*
X25965074Y12996002D01*
X25957562Y12984045D01*
X25807882Y12773091D01*
X25799084Y12762060D01*
X25649426Y12594593D01*
X25632179Y12578592D01*
X25623483Y12571919D01*
X25618737Y12565995D01*
X25618735Y12565993D01*
X25601508Y12544490D01*
X25592270Y12534176D01*
X25388083Y12329988D01*
X24980058Y11921962D01*
X24780227Y11722131D01*
X24766784Y11710466D01*
X24751605Y11699070D01*
X24751598Y11699064D01*
X24748307Y11696593D01*
X24738758Y11687243D01*
X24736211Y11683995D01*
X24736206Y11683989D01*
X24733929Y11681085D01*
X24727673Y11673708D01*
X24513395Y11439865D01*
X24513386Y11439854D01*
X24511532Y11437831D01*
X24509866Y11435659D01*
X24509862Y11435655D01*
X24423399Y11322973D01*
X24306164Y11170189D01*
X24124903Y10885667D01*
X23969130Y10586430D01*
X23840030Y10274755D01*
X23839204Y10272135D01*
X23839201Y10272127D01*
X23739412Y9955638D01*
X23738585Y9953014D01*
X23732848Y9927134D01*
X23705308Y9802912D01*
X23671036Y9740735D01*
X23637826Y9719445D01*
X23638575Y9718077D01*
X23630703Y9713767D01*
X23622295Y9710615D01*
X23505739Y9623261D01*
X23418385Y9506705D01*
X23367255Y9370316D01*
X23360500Y9308134D01*
X23360500Y7111866D01*
X23367255Y7049684D01*
X23418385Y6913295D01*
X23505739Y6796739D01*
X23622295Y6709385D01*
X23758684Y6658255D01*
X23820866Y6651500D01*
X24667134Y6651500D01*
X24729316Y6658255D01*
X24834770Y6697788D01*
X24905578Y6702971D01*
X24923230Y6697788D01*
X25028684Y6658255D01*
X25090866Y6651500D01*
X25937134Y6651500D01*
X25999316Y6658255D01*
X26104770Y6697788D01*
X26175578Y6702971D01*
X26193230Y6697788D01*
X26298684Y6658255D01*
X26360866Y6651500D01*
X27207134Y6651500D01*
X27269316Y6658255D01*
X27374770Y6697788D01*
X27445578Y6702971D01*
X27463230Y6697788D01*
X27568684Y6658255D01*
X27630866Y6651500D01*
X28477134Y6651500D01*
X28539316Y6658255D01*
X28644770Y6697788D01*
X28715578Y6702971D01*
X28733230Y6697788D01*
X28838684Y6658255D01*
X28900866Y6651500D01*
X29747134Y6651500D01*
X29809316Y6658255D01*
X29945705Y6709385D01*
X30062261Y6796739D01*
X30149615Y6913295D01*
X30200745Y7049684D01*
X30207500Y7111866D01*
X30207500Y9308134D01*
X30200745Y9370316D01*
X30149615Y9506705D01*
X30062261Y9623261D01*
X30007935Y9663976D01*
X29965420Y9720835D01*
X29957500Y9764802D01*
X29957500Y10345647D01*
X29958757Y10363401D01*
X29961432Y10382197D01*
X29962013Y10386278D01*
X29962153Y10399642D01*
X29962360Y10399640D01*
X29962878Y10401843D01*
X29961890Y10401819D01*
X29949930Y10889010D01*
X29944173Y11123503D01*
X29890907Y11845620D01*
X29802272Y12564254D01*
X29798536Y12585788D01*
X29727843Y12993199D01*
X29678482Y13277673D01*
X29519835Y13984159D01*
X29416955Y14355920D01*
X29327127Y14680518D01*
X29327123Y14680532D01*
X29326714Y14682009D01*
X29099583Y15369542D01*
X28906366Y15870439D01*
X28839559Y16043631D01*
X28839556Y16043638D01*
X28838991Y16045103D01*
X28753360Y16238284D01*
X28546192Y16705647D01*
X28546187Y16705658D01*
X28545564Y16707063D01*
X28220010Y17353828D01*
X28205961Y17378629D01*
X27866966Y17977037D01*
X27863112Y17983840D01*
X27774845Y18123230D01*
X27476547Y18594294D01*
X27476547Y18594295D01*
X27475732Y18595581D01*
X27058801Y19187577D01*
X26613325Y19758402D01*
X26140376Y20306682D01*
X25654255Y20817271D01*
X25652248Y20819490D01*
X25650593Y20821694D01*
X25645967Y20826418D01*
X25641243Y20831242D01*
X25623479Y20845171D01*
X25618173Y20849572D01*
X25492325Y20959937D01*
X25328755Y21069231D01*
X25152319Y21156240D01*
X25069102Y21184489D01*
X24969946Y21218148D01*
X24969942Y21218149D01*
X24966036Y21219475D01*
X24961992Y21220279D01*
X24961986Y21220281D01*
X24777135Y21257050D01*
X24777132Y21257050D01*
X24773092Y21257854D01*
X24768981Y21258123D01*
X24768977Y21258124D01*
X24703747Y21262399D01*
X24677444Y21264123D01*
X24669897Y21264847D01*
X24664497Y21265529D01*
X24656820Y21267500D01*
X24630785Y21267500D01*
X24613035Y21268757D01*
X24590154Y21272013D01*
X24583111Y21272087D01*
X24580910Y21272110D01*
X24580908Y21272110D01*
X24576790Y21272153D01*
X24572700Y21271658D01*
X24572699Y21271658D01*
X24570832Y21271432D01*
X24545883Y21268413D01*
X24530748Y21267500D01*
X24349000Y21267500D01*
X24280879Y21287502D01*
X24234386Y21341158D01*
X24223000Y21393500D01*
X24223000Y21604032D01*
X24216681Y21672801D01*
X24168657Y21826045D01*
X24133206Y21884582D01*
X24115027Y21953212D01*
X24133206Y22015124D01*
X24181813Y22095385D01*
X24185748Y22101882D01*
X24198423Y22142326D01*
X24220957Y22214234D01*
X24234134Y22256281D01*
X24240500Y22325563D01*
X24240499Y22877436D01*
X24240234Y22880328D01*
X24234745Y22940065D01*
X24234134Y22946719D01*
X24225665Y22973744D01*
X24206723Y23034188D01*
X24205439Y23105173D01*
X24230433Y23152855D01*
X24248154Y23173974D01*
X24251121Y23179372D01*
X24251125Y23179377D01*
X24340467Y23341892D01*
X24343433Y23347287D01*
X24345846Y23354892D01*
X24401373Y23529936D01*
X24401373Y23529937D01*
X24403235Y23535806D01*
X24420500Y23689727D01*
X24420500Y25255769D01*
X24419814Y25262773D01*
X24410662Y25356099D01*
X24406080Y25402833D01*
X24392756Y25446966D01*
X24382162Y25482053D01*
X24348916Y25592169D01*
X24341981Y25605213D01*
X24328564Y25630446D01*
X24314244Y25699983D01*
X24339791Y25766224D01*
X24397096Y25808137D01*
X24439815Y25815600D01*
X32937763Y25815600D01*
X33010752Y25792307D01*
X33013189Y25790575D01*
X33016149Y25788191D01*
X33293253Y25615373D01*
X33589112Y25477097D01*
X33592721Y25475914D01*
X33815653Y25402833D01*
X33899440Y25375366D01*
X34219742Y25311654D01*
X34223514Y25311367D01*
X34223522Y25311366D01*
X34541602Y25287171D01*
X34541607Y25287171D01*
X34545379Y25286884D01*
X34871633Y25301414D01*
X34931425Y25311366D01*
X35190037Y25354410D01*
X35190042Y25354411D01*
X35193778Y25355033D01*
X35507149Y25446966D01*
X35510616Y25448456D01*
X35510620Y25448457D01*
X35803721Y25574384D01*
X35803723Y25574385D01*
X35807205Y25575881D01*
X36089601Y25739909D01*
X36092623Y25742190D01*
X36092627Y25742193D01*
X36156168Y25790162D01*
X36222588Y25815242D01*
X36232085Y25815600D01*
X37491949Y25815600D01*
X37560070Y25795598D01*
X37606563Y25741942D01*
X37617949Y25689600D01*
X37617949Y2667379D01*
X37616449Y2647995D01*
X37612763Y2624321D01*
X37614890Y2608052D01*
X37615683Y2583484D01*
X37601105Y2361066D01*
X37598954Y2344725D01*
X37550320Y2100227D01*
X37546054Y2084308D01*
X37465927Y1848261D01*
X37459620Y1833034D01*
X37349365Y1609459D01*
X37341124Y1595186D01*
X37202633Y1387918D01*
X37192603Y1374845D01*
X37071971Y1237290D01*
X37028235Y1187419D01*
X37016581Y1175765D01*
X36886747Y1061903D01*
X36829159Y1011400D01*
X36816082Y1001367D01*
X36608814Y862876D01*
X36594541Y854635D01*
X36370966Y744380D01*
X36355739Y738073D01*
X36119692Y657946D01*
X36103773Y653680D01*
X35859276Y605046D01*
X35842935Y602895D01*
X35627681Y588787D01*
X35604645Y589812D01*
X35601095Y589855D01*
X35592219Y591237D01*
X35563711Y587509D01*
X35560698Y587115D01*
X35544360Y586051D01*
X2651379Y586051D01*
X2631994Y587551D01*
X2617193Y589856D01*
X2617190Y589856D01*
X2608321Y591237D01*
X2592052Y589110D01*
X2567484Y588317D01*
X2345066Y602895D01*
X2328725Y605046D01*
X2084227Y653680D01*
X2068308Y657946D01*
X1832261Y738073D01*
X1817034Y744380D01*
X1593459Y854635D01*
X1579186Y862876D01*
X1371918Y1001367D01*
X1358841Y1011400D01*
X1301254Y1061903D01*
X1171419Y1175765D01*
X1159765Y1187419D01*
X1116029Y1237290D01*
X995397Y1374845D01*
X985367Y1387918D01*
X846876Y1595186D01*
X838635Y1609459D01*
X728380Y1833034D01*
X722073Y1848261D01*
X641946Y2084308D01*
X637680Y2100227D01*
X589046Y2344724D01*
X586895Y2361065D01*
X572787Y2576319D01*
X573812Y2599355D01*
X573855Y2602905D01*
X575237Y2611781D01*
X571115Y2643303D01*
X570051Y2659640D01*
X570051Y3074034D01*
X2293257Y3074034D01*
X2323565Y2939554D01*
X2326645Y2929725D01*
X2406770Y2732397D01*
X2411413Y2723206D01*
X2522694Y2541612D01*
X2528777Y2533301D01*
X2668213Y2372333D01*
X2675580Y2365117D01*
X2839434Y2229084D01*
X2847881Y2223169D01*
X3031756Y2115721D01*
X3041042Y2111271D01*
X3240001Y2035297D01*
X3249899Y2032421D01*
X3353250Y2011394D01*
X3367299Y2012590D01*
X3371000Y2022935D01*
X3371000Y2023483D01*
X3879000Y2023483D01*
X3883064Y2009641D01*
X3896478Y2007607D01*
X3903184Y2008466D01*
X3913262Y2010608D01*
X4117255Y2071809D01*
X4126842Y2075567D01*
X4318095Y2169261D01*
X4326945Y2174536D01*
X4500328Y2298208D01*
X4508200Y2304861D01*
X4659052Y2455188D01*
X4665730Y2463035D01*
X4790003Y2635980D01*
X4795313Y2644817D01*
X4889670Y2835733D01*
X4893469Y2845328D01*
X4955377Y3049090D01*
X4957555Y3059163D01*
X4958986Y3070038D01*
X4956775Y3084222D01*
X4943617Y3088000D01*
X3897115Y3088000D01*
X3881876Y3083525D01*
X3880671Y3082135D01*
X3879000Y3074452D01*
X3879000Y2023483D01*
X3371000Y2023483D01*
X3371000Y3069885D01*
X3366525Y3085124D01*
X3365135Y3086329D01*
X3357452Y3088000D01*
X2308225Y3088000D01*
X2294694Y3084027D01*
X2293257Y3074034D01*
X570051Y3074034D01*
X570051Y3511866D01*
X23360500Y3511866D01*
X23367255Y3449684D01*
X23418385Y3313295D01*
X23505739Y3196739D01*
X23622295Y3109385D01*
X23758684Y3058255D01*
X23820866Y3051500D01*
X24667134Y3051500D01*
X24729316Y3058255D01*
X24834770Y3097788D01*
X24905578Y3102971D01*
X24923230Y3097788D01*
X25028684Y3058255D01*
X25090866Y3051500D01*
X25937134Y3051500D01*
X25999316Y3058255D01*
X26105482Y3098055D01*
X26176290Y3103238D01*
X26193942Y3098055D01*
X26291394Y3061522D01*
X26306649Y3057895D01*
X26357514Y3052369D01*
X26364328Y3052000D01*
X26511885Y3052000D01*
X26527124Y3056475D01*
X26528329Y3057865D01*
X26530000Y3065548D01*
X26530000Y3070116D01*
X27038000Y3070116D01*
X27042475Y3054877D01*
X27043865Y3053672D01*
X27051548Y3052001D01*
X27203669Y3052001D01*
X27210490Y3052371D01*
X27261352Y3057895D01*
X27276604Y3061521D01*
X27374770Y3098322D01*
X27445577Y3103505D01*
X27463230Y3098322D01*
X27561394Y3061522D01*
X27576649Y3057895D01*
X27627514Y3052369D01*
X27634328Y3052000D01*
X27781885Y3052000D01*
X27797124Y3056475D01*
X27798329Y3057865D01*
X27800000Y3065548D01*
X27800000Y3070116D01*
X28308000Y3070116D01*
X28312475Y3054877D01*
X28313865Y3053672D01*
X28321548Y3052001D01*
X28473669Y3052001D01*
X28480490Y3052371D01*
X28531352Y3057895D01*
X28546604Y3061521D01*
X28644058Y3098055D01*
X28714866Y3103238D01*
X28732517Y3098055D01*
X28838684Y3058255D01*
X28900866Y3051500D01*
X29747134Y3051500D01*
X29809316Y3058255D01*
X29945705Y3109385D01*
X30062261Y3196739D01*
X30149615Y3313295D01*
X30200745Y3449684D01*
X30207500Y3511866D01*
X30207500Y3644415D01*
X31874698Y3644415D01*
X31890936Y3318241D01*
X31891577Y3314510D01*
X31891578Y3314502D01*
X31936770Y3051500D01*
X31946241Y2996381D01*
X31947329Y2992742D01*
X31947330Y2992739D01*
X31991416Y2845328D01*
X32039814Y2683496D01*
X32041327Y2680025D01*
X32041329Y2680019D01*
X32078032Y2595810D01*
X32170297Y2384119D01*
X32172220Y2380848D01*
X32172222Y2380844D01*
X32245063Y2256938D01*
X32335802Y2102586D01*
X32338103Y2099571D01*
X32531631Y1845988D01*
X32531636Y1845983D01*
X32533931Y1842975D01*
X32761814Y1609047D01*
X32834635Y1550393D01*
X33013196Y1406569D01*
X33013201Y1406565D01*
X33016149Y1404191D01*
X33293253Y1231373D01*
X33589112Y1093097D01*
X33592721Y1091914D01*
X33854931Y1005957D01*
X33899440Y991366D01*
X34219742Y927654D01*
X34223514Y927367D01*
X34223522Y927366D01*
X34541602Y903171D01*
X34541607Y903171D01*
X34545379Y902884D01*
X34871633Y917414D01*
X34931425Y927366D01*
X35190037Y970410D01*
X35190042Y970411D01*
X35193778Y971033D01*
X35507149Y1062966D01*
X35510616Y1064456D01*
X35510620Y1064457D01*
X35803721Y1190384D01*
X35803723Y1190385D01*
X35807205Y1191881D01*
X36089601Y1355909D01*
X36350245Y1552676D01*
X36585363Y1779330D01*
X36774293Y2011394D01*
X36789155Y2029649D01*
X36789158Y2029653D01*
X36791549Y2032590D01*
X36816294Y2071809D01*
X36963788Y2305572D01*
X36963790Y2305575D01*
X36965815Y2308785D01*
X36990584Y2361065D01*
X37099139Y2590198D01*
X37105638Y2603916D01*
X37108262Y2611781D01*
X37207790Y2910103D01*
X37207792Y2910109D01*
X37208992Y2913707D01*
X37274381Y3233671D01*
X37280858Y3313295D01*
X37300674Y3556939D01*
X37300856Y3559174D01*
X37301451Y3616000D01*
X37299510Y3648204D01*
X37282026Y3938207D01*
X37282026Y3938211D01*
X37281798Y3941985D01*
X37276650Y3970176D01*
X37223805Y4259527D01*
X37223804Y4259531D01*
X37223125Y4263249D01*
X37215722Y4287093D01*
X37151279Y4494633D01*
X37126282Y4575137D01*
X36992670Y4873131D01*
X36824226Y5152916D01*
X36821899Y5155900D01*
X36821894Y5155907D01*
X36625726Y5407442D01*
X36625724Y5407444D01*
X36623390Y5410437D01*
X36393070Y5641966D01*
X36136603Y5844148D01*
X35857705Y6014055D01*
X35854261Y6015621D01*
X35854257Y6015623D01*
X35645332Y6110615D01*
X35560414Y6149225D01*
X35249037Y6247700D01*
X35031492Y6288610D01*
X34931809Y6307355D01*
X34931807Y6307355D01*
X34928086Y6308055D01*
X34602208Y6329414D01*
X34598428Y6329206D01*
X34598427Y6329206D01*
X34500897Y6323838D01*
X34276124Y6311468D01*
X34272397Y6310807D01*
X34272393Y6310807D01*
X34115341Y6282973D01*
X33954557Y6254478D01*
X33950941Y6253376D01*
X33950933Y6253374D01*
X33651472Y6162105D01*
X33642167Y6159269D01*
X33343477Y6027219D01*
X33318041Y6012086D01*
X33066074Y5862183D01*
X33066068Y5862179D01*
X33062814Y5860243D01*
X33059812Y5857927D01*
X32936070Y5762460D01*
X32804244Y5660757D01*
X32571513Y5431653D01*
X32569149Y5428686D01*
X32569146Y5428683D01*
X32552220Y5407442D01*
X32367991Y5176249D01*
X32196626Y4898243D01*
X32059902Y4601664D01*
X32058741Y4598060D01*
X32058741Y4598059D01*
X32050196Y4571523D01*
X31959797Y4290808D01*
X31959079Y4287097D01*
X31959078Y4287093D01*
X31898482Y3973895D01*
X31898481Y3973886D01*
X31897763Y3970176D01*
X31897496Y3966400D01*
X31897495Y3966395D01*
X31874966Y3648204D01*
X31874698Y3644415D01*
X30207500Y3644415D01*
X30207500Y5708134D01*
X30200745Y5770316D01*
X30149615Y5906705D01*
X30062261Y6023261D01*
X29945705Y6110615D01*
X29809316Y6161745D01*
X29747134Y6168500D01*
X28900866Y6168500D01*
X28838684Y6161745D01*
X28733230Y6122212D01*
X28732518Y6121945D01*
X28661710Y6116762D01*
X28644058Y6121945D01*
X28546606Y6158478D01*
X28531351Y6162105D01*
X28480486Y6167631D01*
X28473672Y6168000D01*
X28326115Y6168000D01*
X28310876Y6163525D01*
X28309671Y6162135D01*
X28308000Y6154452D01*
X28308000Y3070116D01*
X27800000Y3070116D01*
X27800000Y4337885D01*
X27795525Y4353124D01*
X27794135Y4354329D01*
X27786452Y4356000D01*
X27056115Y4356000D01*
X27040876Y4351525D01*
X27039671Y4350135D01*
X27038000Y4342452D01*
X27038000Y3070116D01*
X26530000Y3070116D01*
X26530000Y4882115D01*
X27038000Y4882115D01*
X27042475Y4866876D01*
X27043865Y4865671D01*
X27051548Y4864000D01*
X27781885Y4864000D01*
X27797124Y4868475D01*
X27798329Y4869865D01*
X27800000Y4877548D01*
X27800000Y6149884D01*
X27795525Y6165123D01*
X27794135Y6166328D01*
X27786452Y6167999D01*
X27634331Y6167999D01*
X27627510Y6167629D01*
X27576648Y6162105D01*
X27561396Y6158479D01*
X27463230Y6121678D01*
X27392423Y6116495D01*
X27374770Y6121678D01*
X27276606Y6158478D01*
X27261351Y6162105D01*
X27210486Y6167631D01*
X27203672Y6168000D01*
X27056115Y6168000D01*
X27040876Y6163525D01*
X27039671Y6162135D01*
X27038000Y6154452D01*
X27038000Y4882115D01*
X26530000Y4882115D01*
X26530000Y6149884D01*
X26525525Y6165123D01*
X26524135Y6166328D01*
X26516452Y6167999D01*
X26364331Y6167999D01*
X26357510Y6167629D01*
X26306648Y6162105D01*
X26291396Y6158479D01*
X26193942Y6121945D01*
X26123134Y6116762D01*
X26105482Y6121945D01*
X26104770Y6122212D01*
X25999316Y6161745D01*
X25937134Y6168500D01*
X25090866Y6168500D01*
X25028684Y6161745D01*
X24998339Y6150369D01*
X24923230Y6122212D01*
X24852422Y6117029D01*
X24834770Y6122212D01*
X24759661Y6150369D01*
X24729316Y6161745D01*
X24667134Y6168500D01*
X23820866Y6168500D01*
X23758684Y6161745D01*
X23622295Y6110615D01*
X23505739Y6023261D01*
X23418385Y5906705D01*
X23367255Y5770316D01*
X23360500Y5708134D01*
X23360500Y3511866D01*
X570051Y3511866D01*
X570051Y22234038D01*
X11996463Y22234038D01*
X12000475Y22220376D01*
X12001865Y22219171D01*
X12009548Y22217500D01*
X12541885Y22217500D01*
X12557124Y22221975D01*
X12558329Y22223365D01*
X12560000Y22231048D01*
X12560000Y22816658D01*
X12555729Y22831203D01*
X12543698Y22833248D01*
X12530912Y22830687D01*
X12391411Y22786971D01*
X12377666Y22780765D01*
X12253396Y22705504D01*
X12241527Y22696197D01*
X12138803Y22593473D01*
X12129496Y22581604D01*
X12054235Y22457334D01*
X12048029Y22443589D01*
X12004315Y22304096D01*
X12001702Y22291046D01*
X11996463Y22234038D01*
X570051Y22234038D01*
X570051Y23250038D01*
X18710463Y23250038D01*
X18714475Y23236376D01*
X18715865Y23235171D01*
X18723548Y23233500D01*
X19255885Y23233500D01*
X19271124Y23237975D01*
X19272329Y23239365D01*
X19274000Y23247048D01*
X19274000Y23251615D01*
X19782000Y23251615D01*
X19786475Y23236376D01*
X19787865Y23235171D01*
X19795548Y23233500D01*
X20271885Y23233500D01*
X20287124Y23237975D01*
X20288329Y23239365D01*
X20290000Y23247048D01*
X20290000Y23251615D01*
X20798000Y23251615D01*
X20802475Y23236376D01*
X20803865Y23235171D01*
X20811548Y23233500D01*
X21343885Y23233500D01*
X21359124Y23237975D01*
X21360329Y23239365D01*
X21361813Y23246186D01*
X21361734Y23247888D01*
X21356298Y23307046D01*
X21353685Y23320096D01*
X21309971Y23459589D01*
X21303765Y23473334D01*
X21228504Y23597604D01*
X21219197Y23609473D01*
X21116473Y23712197D01*
X21104604Y23721504D01*
X20980334Y23796765D01*
X20966589Y23802971D01*
X20827088Y23846687D01*
X20815497Y23849009D01*
X20801165Y23846194D01*
X20798000Y23834298D01*
X20798000Y23251615D01*
X20290000Y23251615D01*
X20290000Y23832658D01*
X20285729Y23847203D01*
X20273698Y23849248D01*
X20260912Y23846687D01*
X20121411Y23802971D01*
X20107667Y23796765D01*
X20101275Y23792894D01*
X20032646Y23774713D01*
X19970725Y23792894D01*
X19964333Y23796765D01*
X19950589Y23802971D01*
X19811088Y23846687D01*
X19799497Y23849009D01*
X19785165Y23846194D01*
X19782000Y23834298D01*
X19782000Y23251615D01*
X19274000Y23251615D01*
X19274000Y23832658D01*
X19269729Y23847203D01*
X19257698Y23849248D01*
X19244912Y23846687D01*
X19105411Y23802971D01*
X19091666Y23796765D01*
X18967396Y23721504D01*
X18955527Y23712197D01*
X18852803Y23609473D01*
X18843496Y23597604D01*
X18768235Y23473334D01*
X18762029Y23459589D01*
X18718315Y23320096D01*
X18715702Y23307046D01*
X18710463Y23250038D01*
X570051Y23250038D01*
X570051Y25689600D01*
X590053Y25757721D01*
X643709Y25804214D01*
X696051Y25815600D01*
X1949763Y25815600D01*
X2022752Y25792307D01*
G37*
%TD.AperFunction*%
%TA.AperFunction,Conductor*%
G36*
X21996439Y13988197D02*
G01*
X22072770Y13978148D01*
X22103981Y13974039D01*
X22108075Y13973500D01*
X22207987Y13973500D01*
X22307924Y13973501D01*
X22312009Y13974039D01*
X22312013Y13974039D01*
X22388294Y13984081D01*
X22419561Y13988197D01*
X22426026Y13990875D01*
X22489974Y13990875D01*
X22496439Y13988197D01*
X22572770Y13978148D01*
X22603981Y13974039D01*
X22608075Y13973500D01*
X22707987Y13973500D01*
X22807924Y13973501D01*
X22812006Y13974038D01*
X22812016Y13974039D01*
X22888299Y13984081D01*
X22958447Y13973141D01*
X23011545Y13926012D01*
X23030734Y13857657D01*
X23009922Y13789780D01*
X22998107Y13774548D01*
X22987554Y13762905D01*
X22950925Y13722492D01*
X22950917Y13722483D01*
X22948843Y13720194D01*
X22946999Y13717708D01*
X22946996Y13717704D01*
X22900594Y13655138D01*
X22766737Y13474653D01*
X22765154Y13472012D01*
X22765148Y13472003D01*
X22687414Y13342311D01*
X22609575Y13212445D01*
X22608261Y13209666D01*
X22608259Y13209663D01*
X22480191Y12938887D01*
X22480187Y12938878D01*
X22478871Y12936095D01*
X22440717Y12829460D01*
X22384076Y12671159D01*
X22375884Y12648264D01*
X22375134Y12645268D01*
X22375132Y12645263D01*
X22321797Y12432336D01*
X22301605Y12351725D01*
X22256749Y12049333D01*
X22256598Y12046251D01*
X22256597Y12046245D01*
X22243171Y11772947D01*
X22242245Y11762686D01*
X22241691Y11758481D01*
X22241691Y11758474D01*
X22240700Y11750947D01*
X22242155Y11737766D01*
X22242308Y11711598D01*
X22235804Y11645559D01*
X22230985Y11621333D01*
X22205869Y11538538D01*
X22196417Y11515718D01*
X22155636Y11439422D01*
X22141916Y11418888D01*
X22104184Y11372911D01*
X22091837Y11360960D01*
X22092129Y11360662D01*
X22086703Y11355349D01*
X22080677Y11350725D01*
X22075931Y11344801D01*
X22075928Y11344798D01*
X22057661Y11321996D01*
X22048421Y11311681D01*
X21966907Y11230167D01*
X21954517Y11219300D01*
X21931888Y11201936D01*
X21927139Y11196008D01*
X21921548Y11189030D01*
X21905044Y11172000D01*
X21809530Y11090424D01*
X21793534Y11078802D01*
X21666490Y11000950D01*
X21648875Y10991974D01*
X21511211Y10934952D01*
X21492421Y10928847D01*
X21441244Y10916560D01*
X21347532Y10894062D01*
X21328004Y10890969D01*
X21209945Y10881677D01*
X21187033Y10882277D01*
X21184059Y10882308D01*
X21176525Y10883300D01*
X21139941Y10879261D01*
X21126114Y10878500D01*
X20113982Y10878500D01*
X20045861Y10898502D01*
X19999368Y10952158D01*
X19989264Y11022432D01*
X20006722Y11070616D01*
X20079004Y11187880D01*
X20085151Y11201061D01*
X20113576Y11286759D01*
X20154007Y11345118D01*
X20219571Y11372355D01*
X20270847Y11367325D01*
X20404909Y11325313D01*
X20416503Y11322991D01*
X20430835Y11325806D01*
X20434000Y11337702D01*
X20434000Y11339342D01*
X20942000Y11339342D01*
X20946271Y11324797D01*
X20958302Y11322752D01*
X20971088Y11325313D01*
X21110589Y11369029D01*
X21124334Y11375235D01*
X21248604Y11450496D01*
X21260473Y11459803D01*
X21363197Y11562527D01*
X21372504Y11574396D01*
X21447765Y11698666D01*
X21453971Y11712411D01*
X21497685Y11851904D01*
X21500298Y11864954D01*
X21505537Y11921962D01*
X21501525Y11935624D01*
X21500135Y11936829D01*
X21492452Y11938500D01*
X20960115Y11938500D01*
X20944876Y11934025D01*
X20943671Y11932635D01*
X20942000Y11924952D01*
X20942000Y11339342D01*
X20434000Y11339342D01*
X20434000Y12320500D01*
X20454002Y12388621D01*
X20507658Y12435114D01*
X20560000Y12446500D01*
X21487885Y12446500D01*
X21503124Y12450975D01*
X21504329Y12452365D01*
X21505813Y12459186D01*
X21505734Y12460888D01*
X21500298Y12520046D01*
X21497685Y12533096D01*
X21453971Y12672589D01*
X21447766Y12686331D01*
X21442974Y12694243D01*
X21424793Y12762872D01*
X21442973Y12824790D01*
X21448221Y12833456D01*
X21452157Y12839955D01*
X21500181Y12993199D01*
X21506500Y13061968D01*
X21506500Y13593032D01*
X21500181Y13661801D01*
X21452684Y13813363D01*
X21451399Y13884346D01*
X21488696Y13944757D01*
X21552733Y13975414D01*
X21589362Y13975963D01*
X21603982Y13974038D01*
X21603995Y13974037D01*
X21608075Y13973500D01*
X21707987Y13973500D01*
X21807924Y13973501D01*
X21812009Y13974039D01*
X21812013Y13974039D01*
X21888294Y13984081D01*
X21919561Y13988197D01*
X21926026Y13990875D01*
X21989974Y13990875D01*
X21996439Y13988197D01*
G37*
%TD.AperFunction*%
%TA.AperFunction,Conductor*%
G36*
X14012498Y16388051D02*
G01*
X14052729Y16329553D01*
X14059000Y16290296D01*
X14059000Y16274562D01*
X14059337Y16268047D01*
X14068894Y16175943D01*
X14071788Y16162544D01*
X14121381Y16013893D01*
X14127555Y16000714D01*
X14209788Y15867827D01*
X14218824Y15856426D01*
X14329429Y15746014D01*
X14340840Y15737002D01*
X14473880Y15654996D01*
X14487061Y15648849D01*
X14552532Y15627133D01*
X14610891Y15586702D01*
X14638128Y15521138D01*
X14633098Y15469864D01*
X14588866Y15328719D01*
X14582500Y15259437D01*
X14582501Y14832564D01*
X14588866Y14763281D01*
X14590865Y14756903D01*
X14590865Y14756902D01*
X14632457Y14624182D01*
X14633741Y14553197D01*
X14596444Y14492787D01*
X14552104Y14466982D01*
X14475151Y14441308D01*
X14330945Y14352071D01*
X14211136Y14232053D01*
X14122151Y14087692D01*
X14119846Y14080744D01*
X14119846Y14080743D01*
X14071672Y13935503D01*
X14068762Y13926731D01*
X14058500Y13826572D01*
X14058500Y13217428D01*
X14058837Y13214182D01*
X14058837Y13214178D01*
X14059420Y13208562D01*
X14069022Y13116018D01*
X14122692Y12955151D01*
X14211929Y12810945D01*
X14331947Y12691136D01*
X14338177Y12687296D01*
X14338178Y12687295D01*
X14352055Y12678741D01*
X14476308Y12602151D01*
X14483256Y12599846D01*
X14483257Y12599846D01*
X14630738Y12550928D01*
X14630740Y12550928D01*
X14637269Y12548762D01*
X14737428Y12538500D01*
X15271572Y12538500D01*
X15274818Y12538837D01*
X15274822Y12538837D01*
X15308603Y12542342D01*
X15372982Y12549022D01*
X15533849Y12602692D01*
X15678055Y12691929D01*
X15702887Y12716805D01*
X15765168Y12750884D01*
X15835988Y12745882D01*
X15881078Y12716960D01*
X15906947Y12691136D01*
X15913177Y12687296D01*
X15913178Y12687295D01*
X15927055Y12678741D01*
X16051308Y12602151D01*
X16058256Y12599846D01*
X16058257Y12599846D01*
X16205738Y12550928D01*
X16205740Y12550928D01*
X16212269Y12548762D01*
X16312428Y12538500D01*
X16496248Y12538500D01*
X16564369Y12518498D01*
X16610862Y12464842D01*
X16620966Y12394568D01*
X16591472Y12329988D01*
X16575309Y12314391D01*
X16400833Y12173790D01*
X16393633Y12168400D01*
X16035765Y11919928D01*
X16028198Y11915065D01*
X15943741Y11864954D01*
X15655122Y11693708D01*
X15653512Y11692753D01*
X15645623Y11688446D01*
X15528544Y11629840D01*
X15256043Y11493436D01*
X15247861Y11489699D01*
X15175686Y11459803D01*
X14845339Y11322969D01*
X14836935Y11319834D01*
X14423547Y11182246D01*
X14414926Y11179714D01*
X14019559Y11078802D01*
X13992788Y11071969D01*
X13984002Y11070058D01*
X13961019Y11065911D01*
X13555252Y10992703D01*
X13546349Y10991423D01*
X13155115Y10949361D01*
X13085246Y10961967D01*
X13033284Y11010345D01*
X13015726Y11079136D01*
X13029882Y11132817D01*
X13056754Y11184437D01*
X13058657Y11189030D01*
X13109460Y11311681D01*
X13181216Y11484915D01*
X13182725Y11489699D01*
X13278187Y11792467D01*
X13278188Y11792472D01*
X13279016Y11795097D01*
X13349410Y12112623D01*
X13363214Y12217470D01*
X13365554Y12235250D01*
X13391862Y12435075D01*
X13402399Y12676417D01*
X13404089Y12676343D01*
X13403784Y12678684D01*
X13402500Y12678740D01*
X13402821Y12686086D01*
X13402821Y12686088D01*
X13404399Y12722228D01*
X13405535Y12734472D01*
X13407191Y12746108D01*
X13407336Y12760000D01*
X13403413Y12792419D01*
X13402500Y12807554D01*
X13402500Y14823387D01*
X13403757Y14841142D01*
X13406611Y14861191D01*
X13406611Y14861195D01*
X13407191Y14865268D01*
X13407336Y14879160D01*
X13405183Y14896952D01*
X13404422Y14918269D01*
X13410668Y15045388D01*
X13415731Y15148445D01*
X13416942Y15160744D01*
X13455593Y15421305D01*
X13458005Y15433432D01*
X13522008Y15688949D01*
X13525597Y15700782D01*
X13614340Y15948802D01*
X13619072Y15960226D01*
X13731696Y16198349D01*
X13737525Y16209254D01*
X13824926Y16355073D01*
X13877104Y16403219D01*
X13947028Y16415513D01*
X14012498Y16388051D01*
G37*
%TD.AperFunction*%
%TA.AperFunction,Conductor*%
G36*
X18568133Y18235609D02*
G01*
X18598086Y18171241D01*
X18599500Y18152420D01*
X18599501Y17982076D01*
X18614197Y17870439D01*
X18616875Y17863974D01*
X18616875Y17800026D01*
X18614197Y17793561D01*
X18599500Y17681925D01*
X18599501Y17482076D01*
X18600039Y17477991D01*
X18600039Y17477987D01*
X18606879Y17426031D01*
X18614197Y17370439D01*
X18614239Y17370337D01*
X18612641Y17303137D01*
X18572848Y17244340D01*
X18507584Y17216391D01*
X18492623Y17215500D01*
X17480072Y17215500D01*
X17411951Y17235502D01*
X17380321Y17267678D01*
X17379151Y17266751D01*
X17374604Y17272488D01*
X17370752Y17278713D01*
X17353220Y17296214D01*
X17319141Y17358495D01*
X17324143Y17429315D01*
X17366640Y17486188D01*
X17388366Y17499290D01*
X17520255Y17561669D01*
X17520258Y17561671D01*
X17523037Y17562985D01*
X17542023Y17574365D01*
X17795135Y17726074D01*
X17795144Y17726080D01*
X17797785Y17727663D01*
X17892363Y17797807D01*
X18052578Y17916630D01*
X18052582Y17916633D01*
X18055068Y17918477D01*
X18266318Y18109943D01*
X18275280Y18117341D01*
X18279814Y18120745D01*
X18279819Y18120749D01*
X18283123Y18123230D01*
X18293049Y18132950D01*
X18312476Y18157726D01*
X18315805Y18161792D01*
X18377689Y18234249D01*
X18437139Y18273059D01*
X18508134Y18273566D01*
X18568133Y18235609D01*
G37*
%TD.AperFunction*%
%TD*%
M02*
